<?xml version="1.0" encoding="utf-8"?>
<!-- Generator: Adobe Illustrator 25.1.0, SVG Export Plug-In . SVG Version: 6.00 Build 0)  -->
<svg version="1.1" id="Ebene_1" xmlns="http://www.w3.org/2000/svg" xmlns:xlink="http://www.w3.org/1999/xlink" x="0px" y="0px"
	 viewBox="0 0 50 50" style="enable-background:new 0 0 50 50;" xml:space="preserve">
<style type="text/css">
	.st0{fill:#FFFFFF;}
	.st1{fill:#005A5F;}
	.st2{fill:#D4D600;}
</style>
<circle class="st0" cx="25" cy="25" r="25"/>
<circle class="st0" cx="-37" cy="25" r="25"/>
<circle class="st0" cx="-100.6" cy="25" r="25"/>
<circle class="st0" cx="-169.2" cy="25" r="25"/>
<g>
	<path class="st1" d="M-180.3,15.4c-0.3,0-0.5,0.1-0.6,0.3c-0.1,0.2-0.1,0.4,0,0.7l3.1,5.3c0,0,0,0,0,0l-4.9,8.6
		c-0.1,0.3-0.1,0.5,0,0.7c0.1,0.2,0.3,0.3,0.6,0.3l4.6,0c0.7,0,1-0.5,1.2-0.9c0,0,4.7-8.4,4.9-8.7c0,0-3.1-5.5-3.1-5.5
		c-0.2-0.4-0.6-0.9-1.3-0.9L-180.3,15.4L-180.3,15.4z"/>
	<path class="st2" d="M-161.1,9.2c-0.7,0-1,0.4-1.2,0.9c0,0-9.8,17.5-10.2,18c0,0,6.5,11.9,6.5,11.9c0.2,0.4,0.6,0.9,1.3,0.9l4.6,0
		c0.3,0,0.5-0.1,0.6-0.3c0.1-0.2,0.1-0.5,0-0.7l-6.4-11.8c0,0,0,0,0,0l10.1-17.9c0.1-0.3,0.1-0.5,0-0.7c-0.1-0.2-0.3-0.3-0.6-0.3
		L-161.1,9.2L-161.1,9.2L-161.1,9.2L-161.1,9.2z"/>
</g>
</svg>
